# xmcd CD database file
#
# Track frame offsets:
#	150
#	67288
#	71263
#	94585
#	114845
#	134610
#	147605
#	174250
#	202870
#	214798
#	223525
#	247233
#	262790
#	287390
#	297755
#
# Disc length: 4312 seconds
#
# Revision: 0
# Processed by: cddbd v1.5.1PL0 Copyright (c) Steve Scherf et al.
# Submitted via: CDex 1.51
#
DISCID=e710d60f
DTITLE=東儀兼彦 - 喜瑞2
DYEAR=2002
DGENRE=Instrumental
TTITLE0=唐楽 「蘇合香」 序一帖
TTITLE1=唐楽 「蘇莫者」 音取
TTITLE2=唐楽 「蘇莫者」 序
TTITLE3=唐楽 「蘇莫者」 破
TTITLE4=唐楽 「胡飲酒」 序
TTITLE5=唐楽 「胡飲酒」 破
TTITLE6=唐楽 「五常楽」 急
TTITLE7=唐楽 「長慶子」
TTITLE8=高麗楽 「新鳥蘇」 納序
TTITLE9=高麗楽 「新鳥蘇」 古弾
TTITLE10=高麗楽 「新鳥蘇」
TTITLE11=高麗楽 「古鳥蘇」 意調子
TTITLE12=高麗楽 「古鳥蘇」
TTITLE13=高麗楽 「登天楽」 高麗双調音取
TTITLE14=高麗楽 「登天楽」
EXTD=YEAR: 2002
EXTT0=
EXTT1=
EXTT2=
EXTT3=
EXTT4=
EXTT5=
EXTT6=
EXTT7=
EXTT8=
EXTT9=
EXTT10=
EXTT11=
EXTT12=
EXTT13=
EXTT14=
PLAYORDER=
